HIERARCHY
ROOT Hips
{
	OFFSET -0.001795 -0.223333 0.028219
	CHANNELS 6 Xposition Yposition Zposition Zrotation Yrotation Xrotation 
	JOINT LeftUpLeg
	{
		OFFSET 0.069520 -0.091406 -0.006815
		CHANNELS 3 Zrotation Yrotation Xrotation
		JOINT LeftLeg
		{
			OFFSET 0.034277 -0.375199 -0.004496
			CHANNELS 3 Zrotation Yrotation Xrotation
			JOINT LeftFoot
			{
				OFFSET -0.013596 -0.397961 -0.043693
				CHANNELS 3 Zrotation Yrotation Xrotation
				JOINT LeftToe
				{
					OFFSET 0.026358 -0.055791 0.119288
					CHANNELS 3 Zrotation Yrotation Xrotation
					End Site
					{
						OFFSET 0.000000 0.000000 0.000000
					}
				}
			}
		}
	}
	JOINT RightUpLeg
	{
		OFFSET -0.067670 -0.090522 -0.004320
		CHANNELS 3 Zrotation Yrotation Xrotation
		JOINT RightLeg
		{
			OFFSET -0.038290 -0.382569 -0.008850
			CHANNELS 3 Zrotation Yrotation Xrotation
			JOINT RightFoot
			{
				OFFSET 0.015774 -0.398415 -0.042312
				CHANNELS 3 Zrotation Yrotation Xrotation
				JOINT RightToe
				{
					OFFSET -0.025372 -0.048144 0.123348
					CHANNELS 3 Zrotation Yrotation Xrotation
					End Site
					{
						OFFSET 0.000000 0.000000 0.000000
					}
				}
			}
		}
	}
	JOINT Spine
	{
		OFFSET -0.002533 0.108963 -0.026696
		CHANNELS 3 Zrotation Yrotation Xrotation
		JOINT Spine1
		{
			OFFSET 0.005487 0.135180 0.001092
			CHANNELS 3 Zrotation Yrotation Xrotation
			JOINT Spine2
			{
				OFFSET 0.001457 0.052922 0.025425
				CHANNELS 3 Zrotation Yrotation Xrotation
				JOINT Neck
				{
					OFFSET -0.002778 0.213870 -0.042857
					CHANNELS 3 Zrotation Yrotation Xrotation
					JOINT Head
					{
						OFFSET 0.005152 0.064970 0.051349
						CHANNELS 3 Zrotation Yrotation Xrotation
						End Site
						{
							OFFSET 0.000000 0.000000 0.000000
						}
					}
				}
				JOINT LeftShoulder
				{
					OFFSET 0.078845 0.121749 -0.034090
					CHANNELS 3 Zrotation Yrotation Xrotation
					JOINT LeftArm
					{
						OFFSET 0.090977 0.030469 -0.008868
						CHANNELS 3 Zrotation Yrotation Xrotation
						JOINT LeftForeArm
						{
							OFFSET 0.259612 -0.012772 -0.027456
							CHANNELS 3 Zrotation Yrotation Xrotation
							JOINT LeftHand
							{
								OFFSET 0.249234 0.008986 -0.001171
								CHANNELS 3 Zrotation Yrotation Xrotation
								End Site
								{
									OFFSET 0.000000 0.000000 0.000000
								}
							}
						}
					}
				}
				JOINT RightShoulder
				{
					OFFSET -0.081759 0.118833 -0.038615
					CHANNELS 3 Zrotation Yrotation Xrotation
					JOINT RightArm
					{
						OFFSET -0.096012 0.032551 -0.009143
						CHANNELS 3 Zrotation Yrotation Xrotation
						JOINT RightForeArm
						{
							OFFSET -0.253742 -0.013329 -0.021401
							CHANNELS 3 Zrotation Yrotation Xrotation
							JOINT RightHand
							{
								OFFSET -0.255298 0.007772 -0.005559
								CHANNELS 3 Zrotation Yrotation Xrotation
								End Site
								{
									OFFSET 0.000000 0.000000 0.000000
								}
							}
						}
					}
				}
			}
		}
	}
}
MOTION
Frames: 12
Frame Time: 0.050000
0.000000 0.956828 0.000000 2.249963 2.875055 -0.202790 5.929024 -0.364732 -6.432949 0.732590 -1.136886 21.257804 -1.469072 2.319982 11.400895 0.000000 0.000000 0.000000 -1.985062 0.344391 -3.780120 4.306258 -0.526558 11.804376 -3.564924 -13.981607 32.679115 0.000000 0.000000 0.000000 0.202381 -0.566866 12.839786 1.861552 0.433273 -29.653059 2.096915 6.262914 27.761629 -2.229849 3.891032 -15.933998 0.000000 0.000000 0.000000 -33.960468 2.177045 -7.714869 -43.100687 1.073788 -6.518206 -8.499288 -27.747054 3.090935 0.000000 0.000000 0.000000 25.239482 5.311544 4.610638 47.914945 8.558406 -4.631020 2.326429 25.319201 1.809954 0.000000 0.000000 0.000000 
0.005430 0.957127 0.002771 2.164764 0.053782 0.225759 6.143547 -0.310300 -6.175737 0.330346 -0.838951 21.039498 -1.380676 1.108657 8.748398 0.000000 0.000000 0.000000 -2.686854 0.464144 -5.294024 5.014953 -0.594065 13.232660 -3.602593 -14.605439 33.037336 0.000000 0.000000 0.000000 -0.045854 -0.467471 11.901058 2.402468 0.264400 -29.004626 1.951894 8.023599 27.999938 -3.441454 4.775968 -16.232999 0.000000 0.000000 0.000000 -32.635139 3.459665 -8.223345 -45.476546 0.521517 -6.811273 -7.890232 -28.495454 3.055446 0.000000 0.000000 0.000000 25.232030 7.329678 5.852469 48.595241 8.449437 -4.695688 0.712823 25.456888 1.477187 0.000000 0.000000 0.000000 
0.011711 0.955885 0.004613 2.091964 -1.431297 0.458524 5.202008 -0.291718 -5.239994 2.133385 -1.216733 19.354151 -2.386911 -1.255211 7.784474 0.000000 0.000000 0.000000 -3.545138 0.494705 -5.832644 5.480034 -0.642152 13.639026 -2.456235 -13.443329 32.667295 0.000000 0.000000 0.000000 0.258721 -0.484680 11.812130 2.543975 0.234445 -29.402777 1.228073 7.988105 28.986515 -3.562426 4.842594 -18.724468 0.000000 0.000000 0.000000 -32.993697 3.473845 -7.844454 -45.256007 -0.733195 -6.539236 -8.555795 -27.449912 3.178092 0.000000 0.000000 0.000000 24.893934 8.083966 5.991250 48.534650 7.946195 -4.880495 1.195333 26.642050 1.642735 0.000000 0.000000 0.000000 
0.019414 0.955434 0.004808 1.922980 -3.613119 0.573650 4.651658 -0.259034 -4.602801 2.437594 -1.171931 18.723427 -1.959756 -1.367775 6.110533 0.000000 0.000000 0.000000 -3.690166 0.580490 -6.852315 5.968438 -0.662084 15.192118 -4.223352 -15.772768 30.284560 0.000000 0.000000 0.000000 -0.547129 -0.374304 11.890012 4.054624 -0.077111 -29.440667 0.993852 7.999687 29.322897 -4.327444 5.166861 -18.988415 0.000000 0.000000 0.000000 -34.288073 4.035473 -7.902409 -45.007078 -1.611680 -6.364987 -8.468237 -27.806306 3.300704 0.000000 0.000000 0.000000 24.665870 10.092182 6.698618 48.288742 8.204075 -4.637079 0.570671 26.539894 1.423092 0.000000 0.000000 0.000000 
0.028314 0.954829 0.003109 1.591830 -5.263266 0.698321 4.021309 -0.253497 -4.319193 2.082090 -0.943090 17.142515 -1.436193 -0.685423 5.642639 0.000000 0.000000 0.000000 -4.030096 0.685217 -8.250264 5.650845 -0.498963 16.869547 -2.646570 -14.089375 30.276401 0.000000 0.000000 0.000000 -0.704651 -0.352999 12.451042 4.371057 -0.207100 -28.732482 0.749153 7.345183 28.797454 -4.646592 5.105788 -20.603708 0.000000 0.000000 0.000000 -34.389092 2.696191 -6.127802 -45.093510 -2.596345 -6.243927 -8.878442 -27.886214 3.502865 0.000000 0.000000 0.000000 25.168752 10.226391 6.217413 47.204374 8.129520 -4.421861 1.154570 27.161883 1.528770 0.000000 0.000000 0.000000 
0.038432 0.954449 -0.000528 1.242998 -7.603691 1.105236 3.989336 -0.257539 -4.704723 1.304692 -0.625657 16.712243 -0.474616 0.697643 4.767113 0.000000 0.000000 0.000000 -4.011378 0.844335 -10.021492 5.526449 -0.311613 18.732709 -2.895686 -14.537953 28.124613 0.000000 0.000000 0.000000 -0.988169 -0.299350 12.955805 5.279013 -0.456383 -28.185815 0.250032 6.194025 28.216374 -4.404736 4.515069 -20.884465 0.000000 0.000000 0.000000 -35.312351 2.124676 -4.625109 -44.106854 -3.549970 -6.098686 -10.263663 -28.396585 4.040770 0.000000 0.000000 0.000000 24.971420 11.987150 6.320283 46.941843 7.926880 -4.159218 0.849940 27.999309 1.405450 0.000000 0.000000 0.000000 
0.049356 0.954220 -0.006098 0.867615 -10.562731 1.186480 3.517702 -0.280593 -5.175036 0.531637 -0.290229 16.249698 0.701062 2.797006 4.710630 0.000000 0.000000 0.000000 -4.221636 1.007452 -11.712401 5.343797 -0.038247 20.377703 -1.918667 -13.633572 27.176614 0.000000 0.000000 0.000000 -1.289900 -0.226221 14.372212 5.584686 -0.598894 -27.697811 0.475044 5.710034 27.491968 -4.371670 4.117452 -21.687228 0.000000 0.000000 0.000000 -35.781318 1.272721 -2.926999 -43.295401 -5.171649 -5.738787 -10.629590 -28.591164 4.252153 0.000000 0.000000 0.000000 24.589501 12.620437 5.822355 46.757651 8.678182 -3.575808 1.262230 28.248349 1.420768 0.000000 0.000000 0.000000 
0.060811 0.954320 -0.013412 0.274259 -13.757283 1.563384 3.436060 -0.300064 -6.030831 -0.086804 0.017145 16.138719 1.881593 4.846647 4.302267 0.000000 0.000000 0.000000 -3.918497 1.207151 -13.215540 4.749630 0.330870 20.804493 -1.036578 -12.920635 26.457513 0.000000 0.000000 0.000000 -1.296233 -0.163748 15.447619 6.055778 -0.825579 -26.766220 0.245065 4.912348 26.428813 -3.814739 3.315422 -21.481818 0.000000 0.000000 0.000000 -36.240532 0.621342 -1.175667 -41.757900 -6.735283 -5.368669 -11.027826 -29.104430 4.505893 0.000000 0.000000 0.000000 24.378631 13.933932 5.567805 46.681452 8.816184 -3.116222 1.165129 29.375701 1.320989 0.000000 0.000000 0.000000 
0.072105 0.955500 -0.021995 -0.164571 -17.143170 1.995305 3.372295 -0.316159 -7.094262 -1.031971 0.436531 15.986548 3.059577 7.045921 4.857832 0.000000 0.000000 0.000000 -3.725011 1.414035 -14.574570 4.646856 0.548263 20.684091 -1.020148 -13.332320 25.546353 0.000000 0.000000 0.000000 -1.413345 -0.051501 16.538408 6.639506 -1.027271 -26.265145 0.264109 4.796468 25.644977 -3.005206 2.460071 -21.693885 0.000000 0.000000 0.000000 -36.405246 0.234236 0.152003 -40.726027 -8.258620 -5.044171 -11.089935 -29.533429 4.646587 0.000000 0.000000 0.000000 24.041589 14.129985 4.861624 46.899075 8.815724 -2.825253 1.471899 29.991994 1.305847 0.000000 0.000000 0.000000 
0.083061 0.956386 -0.031538 -0.841984 -20.790905 2.691163 3.331807 -0.319586 -8.468406 -1.429508 0.741679 16.154055 4.402363 9.460340 5.256533 0.000000 0.000000 0.000000 -3.291653 1.687898 -16.086563 4.340816 0.779966 20.172314 -0.076330 -12.689090 25.284901 0.000000 0.000000 0.000000 -1.304918 0.069149 17.947390 6.944411 -1.126747 -26.186534 0.509342 4.492045 25.082923 -2.436535 1.724390 -21.276678 0.000000 0.000000 0.000000 -36.031440 -0.222759 1.684918 -39.948222 -9.787846 -4.791474 -11.624892 -30.447530 5.011929 0.000000 0.000000 0.000000 22.982572 14.468680 4.172134 47.513018 8.813815 -2.578997 2.025506 31.224022 1.341859 0.000000 0.000000 0.000000 
0.093513 0.957560 -0.041297 -1.188715 -24.503930 3.195682 3.438368 -0.267466 -9.584740 -1.812467 1.015086 15.741512 5.444365 11.142150 6.852703 0.000000 0.000000 0.000000 -2.973133 1.879370 -16.831375 4.388818 0.880733 19.344106 0.010571 -12.445432 22.459388 0.000000 0.000000 0.000000 -1.343094 0.243122 18.956681 6.797642 -1.231937 -25.374330 0.585449 4.389120 24.262887 -2.637166 1.529637 -21.110561 0.000000 0.000000 0.000000 -35.547993 -0.352520 2.830752 -39.452175 -11.458657 -4.486514 -10.778998 -31.910103 5.117539 0.000000 0.000000 0.000000 22.842854 14.530396 3.366265 48.013658 8.899798 -2.257147 2.419287 32.005781 1.302390 0.000000 0.000000 0.000000 
0.103523 0.957826 -0.050756 -1.558934 -28.013999 3.600941 3.872636 -0.130808 -10.877522 -2.176028 1.342087 16.000427 6.484013 12.709665 7.826433 0.000000 0.000000 0.000000 -2.374773 2.000990 -16.978542 4.307470 0.913437 17.949771 -0.228260 -12.355811 19.386488 0.000000 0.000000 0.000000 -1.482696 0.517581 20.630944 6.966696 -1.276099 -25.553083 0.560273 3.681040 24.003243 -3.011157 1.406434 -19.916845 0.000000 0.000000 0.000000 -35.359938 -0.516695 4.184473 -38.906787 -13.125906 -4.291594 -9.490739 -33.166412 5.040881 0.000000 0.000000 0.000000 22.880169 14.624933 2.447038 47.870567 8.790635 -1.990322 4.021039 32.553047 1.540960 0.000000 0.000000 0.000000 
